# xmcd
#
# Track frame offsets: 
#        150
#        14105
#        28213
#        39027
#        50164
#        61904
#        72728
#        83973
#        95295
#        107459
#        119272
#        132452
#        146813
#        160693
#        173666
#        185971
#        200524
#        213820
#
# Disc length: 3018 seconds
#
# Revision: 0
# Processed by: cddbd v1.5.2PL0 Copyright (c) Steve Scherf et al.
# Submitted via: ExactAudioCopy v0.95a5
#
DISCID=0a0bc812
DTITLE=Gillum (Jazz) - The Blues - Harmonica Chicago Blues 1934-1947 (
DTITLE=Cd 1)
DYEAR=1998
DGENRE=Blues
TTITLE0=Harmonica Stomp  (1934 - Avec Big Bill Broonzy)
TTITLE1=Sarah Jane  (1936 - Avec Big Bill Broonzy)
TTITLE2=Don't You Scandalize My Name (1936 - Avec Big Bill Broonzy)
TTITLE3=Gillum's Windy Blues (1938 - Avec George Barnes)
TTITLE4=Good Old 51 Highway (1938 - Avec Big Bill Broonzy)
TTITLE5=I' Ll Get Along Somehow (1938 - Avec Big Bill Broonzy)
TTITLE6=It Sure Had A Kick (1940 - Avec Big Bill Broonzy)
TTITLE7=Longest Train Blues (1940 - Avec Big Bill Broonzy)
TTITLE8=Key To The Highway (1940 - Avec Big Bill Broonzy)
TTITLE9=I' m Still Walking The Highway (1941- Avec Big Bill Broonzy)
TTITLE10=Poor Boy Blues (1941 - Avec Big Bill Broonzy)
TTITLE11=Riley Spring Blues (1941 - Avec Big Bill Broonzy)
TTITLE12=Me And My Buddy (1941 - Avec Big Bill Broonzy)
TTITLE13=It S All Over Now (1941 - Avec Big Bill Broonzy)
TTITLE14=War Time Blues (1941 - Avec Big Bill Broonzy)
TTITLE15=Down South Blues (1941 - Avec Big Bill Broonzy)
TTITLE16=I'm Gonna Leave You On The Outskirts Of Town (1942 - Avec Big
TTITLE16=Bill Broonzy)
TTITLE17=Water Pipe Blues (1942 - Avec Big Bill Broonzy)
EXTD=
EXTT0=
EXTT1=
EXTT2=
EXTT3=
EXTT4=
EXTT5=
EXTT6=
EXTT7=
EXTT8=
EXTT9=
EXTT10=
EXTT11=
EXTT12=
EXTT13=
EXTT14=
EXTT15=
EXTT16=
EXTT17=
PLAYORDER=
